# xmcd
#
# Track frame offsets:
#  225
#  17156
#  30864
#  40016
#  56001
#  66898
#  77141
#  88851
#  99439
#  118455
#  131233
#  145768
#  157642
#  169448
#  181928
#  197993
#
# Disc length: 2810 seconds
#
# Revision: 2
# Processed by: cddbd v1.5.1PL0 Copyright (c) Steve Scherf et al.
# Submitted via: Collectorz.com Music Collector 6.9
#
DISCID=da0af710
DTITLE=Various Artist - Country Woman - Cd2
DYEAR=1998
DGENRE=Country
TTITLE0=Lynn Anderson - Blue Bayou
TTITLE1=Barbara Fairchild and Buddy Owens - Crazy Love
TTITLE2=Loretta Lynn - First City
TTITLE3=Anne Murray - Both Sides Now
TTITLE4=Donna Fargo - Wishful Thinking
TTITLE5=Patsy Cline - Pick Me Up On Your Way Down
TTITLE6=Tina Turner - Stand By Your Man
TTITLE7=Dolly Parton - It Wasn't God Who Made Honky Tonk
TTITLE8=Brenda Lee - Saved
TTITLE9=Billie Jo Spears - Dallas
TTITLE10=Loretta Lynn - Coalminer's Daughter
TTITLE11=Anne Murray - The Last Thing On My Mind
TTITLE12=Wanda Jackson - Sweet Dreams
TTITLE13=Jo Anne houston - Blue, Blue Day
TTITLE14=Brenda Lee - Coming On Strong
TTITLE15=Lynn Anderson - Top Of The World
EXTD=
EXTT0=
EXTT1=
EXTT2=
EXTT3=
EXTT4=
EXTT5=
EXTT6=
EXTT7=
EXTT8=
EXTT9=
EXTT10=
EXTT11=
EXTT12=
EXTT13=
EXTT14=
EXTT15=
PLAYORDER=
